PathFileType	4	(X/Y/Z)	E:\Qualisys_Data\Carbon_Farble_Plate\Data\Amateur_Runner\S1\T1\S1T1V12_c3d.trc
DataRate	CameraRate	NumFrames	NumMarkers	Units	OrigDataRate	OrigDataStartFrame	OrigNumFrames
200.000000	200.000000	4	39	mm	200.000000	117	312
Frame#	Time	LSHO			RSHO			LICST			RICST			LASIS			LHEEL			RASIS			LTROC			RTROC			SACR			LTH1			LSK4			LTH2			LTH3			RHM5			LSK2			LTH4			RTH1			LTOE			RTH2			RTH3			RTH4			LLEP			RLEP			LSK1			LSK3			RSK1			LHM5			RSK2			LFT1			RSK3			RSK4			LLME			RLME			RTOE			RHEEL			RFT1			RFT2			LFT2			
		X1	Y1	Z1	X2	Y2	Z2	X3	Y3	Z3	X4	Y4	Z4	X5	Y5	Z5	X6	Y6	Z6	X7	Y7	Z7	X8	Y8	Z8	X9	Y9	Z9	X10	Y10	Z10	X11	Y11	Z11	X12	Y12	Z12	X13	Y13	Z13	X14	Y14	Z14	X15	Y15	Z15	X16	Y16	Z16	X17	Y17	Z17	X18	Y18	Z18	X19	Y19	Z19	X20	Y20	Z20	X21	Y21	Z21	X22	Y22	Z22	X23	Y23	Z23	X24	Y24	Z24	X25	Y25	Z25	X26	Y26	Z26	X27	Y27	Z27	X28	Y28	Z28	X29	Y29	Z29	X30	Y30	Z30	X31	Y31	Z31	X32	Y32	Z32	X33	Y33	Z33	X34	Y34	Z34	X35	Y35	Z35	X36	Y36	Z36	X37	Y37	Z37	X38	Y38	Z38	X39	Y39	Z39	

118	0.585	-466.4761962890625	1460.502685546875	-504.5586547851562	-482.8430786132812	1475.032836914062	-171.8162536621094	-530.6781005859375	1014.136535644531	-460.4724731445312	-535.0634155273438	1026.433227539062	-158.3032073974609	-486.4386901855469	975.2390747070312	-432.7149963378906	-798.1387329101562	105.021842956543	-328.789794921875	-493.9100341796875	979.7576904296876	-166.2229766845703	-597.2535400390625	893.3202514648438	-476.8615112304688	-597.697265625	885.0199584960938	-139.857421875	-649.939453125	1036.8798828125	-306.6234436035156	-467.8030395507812	743.2925415039062	-452.0349731445312	-713.7368774414062	249.9235229492188	-371.8876342773438	-549.4390869140625	734.6211547851562	-476.8106079101562	-465.5000610351562	640.4744873046875	-433.8636474609375	-651.513916015625	180.0272064208984	-136.3220520019531	-659.32470703125	327.7829284667969	-414.1561889648438	-550.3138427734375	637.0035400390625	-449.1470031738281	-425.8843383789062	809.6062622070312	-145.5813140869141	-543.3561401367188	58.41938400268555	-328.7084350585938	-494.9729919433594	772.1521606445312	-123.7456207275391	-376.8388366699219	720.22900390625	-142.8003234863281	-449.1672973632812	682.679443359375	-130.2461547851562	-513.1138916015625	484.7978820800781	-403.5181579589844	-355.37451171875	544.2131958007812	-160.2129974365234	-590.2391967773438	285.3568725585938	-392.8646850585938	-648.4606323242188	203.6372680664062	-383.0157165527344	-488.5256652832031	423.9094848632812	-148.5688629150391	-609.3353271484375	59.85428619384766	-391.3518981933594	-535.2761840820312	487.5663757324219	-168.4864654541016	-792.2205200195312	78.08943939208984	-300.7460632324219	-566.319091796875	361.2290649414062	-163.6784820556641	-610.8858032226562	423.8243103027344	-189.1949768066406	-735.6932373046875	120.1648330688477	-375.2357177734375	-687.8720703125	312.34765625	-167.2598114013672	-584.2642211914062	139.4610137939453	-203.9909515380859	-757.967041015625	326.2998657226562	-216.9712677001953	-769.817626953125	295.2823486328125	-248.0711059570312	-773.7761840820312	307.6875915527344	-189.7857208251953	-798.02587890625	77.71053314208984	-355.2987365722656
119	0.59	-448.4390563964844	1463.671264648438	-503.2575073242188	-469.3587951660156	1478.014038085938	-171.209228515625	-513.95751953125	1015.399169921875	-460.5075988769531	-518.290771484375	1029.476318359375	-159.2362518310547	-470.7628784179688	976.726318359375	-432.974365234375	-797.67529296875	107.040901184082	-327.7741394042969	-476.5529479980469	983.369873046875	-167.1365661621094	-582.7530517578125	895.233154296875	-476.3889770507812	-581.7299194335938	888.4384155273438	-139.8521575927734	-633.6903076171875	1039.86328125	-307.2118530273438	-455.822998046875	743.4928588867188	-450.5935363769531	-711.2599487304688	252.4580688476562	-371.148681640625	-537.337890625	736.4920654296875	-476.1644592285156	-456.0310363769531	640.275634765625	-432.164794921875	-617.1351928710938	174.6760406494141	-136.0179443359375	-656.0430908203125	330.2817687988281	-413.3799743652344	-540.5857543945312	638.9921875	-448.222412109375	-409.6092529296875	814.9481811523438	-145.9059143066406	-542.9505615234375	58.25238037109375	-328.9573974609375	-478.1415100097656	776.5092163085938	-123.6535797119141	-359.0747985839844	726.5491333007812	-142.7529754638672	-430.9236450195312	687.9461059570312	-130.5308380126953	-508.2463989257812	485.5726623535156	-402.3888854980469	-335.4042053222656	550.5770263671875	-159.9860687255859	-587.2430419921875	287.0556640625	-391.6726684570312	-646.4387817382812	205.7299194335938	-382.5055541992188	-464.1656494140625	425.4060363769531	-148.4098968505859	-609.2185668945312	59.97992706298828	-391.101318359375	-513.7725219726562	487.7841796875	-168.2730407714844	-791.5388793945312	79.2809066772461	-300.0123901367188	-539.5922241210938	360.3097839355469	-162.1570587158203	-586.5819091796875	420.3959655761719	-189.5531921386719	-734.597900390625	122.836799621582	-375.1621398925781	-659.2811889648438	305.5852355957031	-166.8937683105469	-549.53857421875	138.0314025878906	-204.0213928222656	-732.0201416015625	316.0302429199219	-216.9995574951172	-736.2218017578125	285.9768676757812	-249.1017456054688	-744.7391357421875	297.2687377929688	-189.4312286376953	-797.563232421875	79.60221099853516	-354.7681884765625
120	0.595	-430.4044799804688	1467.285034179688	-502.0531921386719	-455.9187927246094	1481.0634765625	-170.5429229736328	-497.6033020019531	1016.843139648438	-461.143798828125	-502.4083251953125	1033.0966796875	-159.8639984130859	-454.4759826660156	978.1478881835938	-433.3519592285156	-797.01220703125	109.4074249267578	-326.2442016601562	-460.5787963867188	986.7685546875	-167.6646118164062	-567.9212036132812	897.6590576171875	-476.2303466796875	-565.2149047851562	892.3367919921875	-138.9254302978516	-617.5379638671875	1042.701171875	-307.4911804199219	-443.71337890625	743.861083984375	-448.7592468261719	-708.5045776367188	255.7503356933594	-370.6444396972656	-525.1276245117188	738.744384765625	-475.7267761230469	-446.3915405273438	640.9619750976562	-430.4187927246094	-582.6680297851562	169.7183227539062	-135.3878021240234	-652.7938842773438	332.9566040039062	-412.133056640625	-530.7394409179688	641.501953125	-447.5842590332031	-393.1435546875	820.3884887695312	-146.1259765625	-542.9015502929688	57.67825317382812	-328.2897338867188	-460.6042785644531	781.089111328125	-123.2319641113281	-341.3603820800781	732.6547241210938	-143.0556640625	-412.5270080566406	693.4739990234375	-130.682373046875	-503.243408203125	486.8643493652344	-401.3709716796875	-315.0976867675781	556.5831298828125	-159.7983703613281	-584.417724609375	289.1668090820312	-391.352294921875	-644.0929565429688	208.3876953125	-382.2645874023438	-440.1159362792969	426.9159240722656	-148.2407073974609	-608.7777709960938	60.37527465820312	-390.839599609375	-492.4017333984375	486.9214477539062	-168.5621032714844	-790.9254150390625	80.19745635986328	-299.3533630371094	-512.4127807617188	359.0973510742188	-160.7998504638672	-562.156494140625	416.4143371582031	-189.478759765625	-733.0318603515625	125.9785003662109	-375.3299560546875	-630.2882080078125	298.4212036132812	-166.6335144042969	-511.1895446777344	136.0458984375	-203.6350860595703	-703.2555541992188	305.6742858886719	-216.9782104492188	-705.5035400390625	276.2192687988281	-248.2758178710938	-716.19140625	285.8181457519531	-190.2304229736328	-796.839111328125	82.28385925292969	-354.0751037597656
121	0.6	-412.2445068359375	1471.203002929688	-500.9568176269531	-442.9419555664062	1484.271728515625	-170.0911102294922	-481.6969604492188	1018.87353515625	-461.7066345214844	-485.871337890625	1036.764526367188	-160.5285491943359	-438.0797729492188	979.5384521484376	-434.3879089355469	-795.1737670898438	114.3250503540039	-327.101318359375	-444.041748046875	990.0739135742188	-168.7518310546875	-552.9371337890625	900.2338256835938	-475.6883850097656	-548.5572509765625	896.4417114257812	-138.3312377929688	-601.6722412109375	1045.611206054688	-308.2449035644531	-431.3376159667969	744.4636840820312	-447.1387939453125	-705.6602172851562	259.4220581054688	-370.1464538574219	-512.8046264648438	740.7642822265625	-474.7287902832031	-436.9954528808594	641.6192016601562	-427.7128601074219	-547.5454711914062	164.7464447021484	-135.4632263183594	-649.6455078125	336.3687438964844	-411.6968994140625	-521.311767578125	643.7817993164062	-446.5122375488281	-376.58740234375	825.9314575195312	-146.5432739257812	-542.325439453125	58.04517364501953	-328.0453186035156	-443.4543151855469	786.0833740234375	-123.6263046264648	-323.56201171875	738.9144287109375	-143.6628723144531	-394.4914855957031	698.2695922851562	-130.9719085693359	-498.4339294433594	488.6705932617188	-400.2907409667969	-296.0378112792969	562.6228637695312	-159.6627197265625	-581.4077758789062	292.0425109863281	-390.732666015625	-641.74267578125	211.5221557617188	-381.9737243652344	-416.27783203125	427.9132080078125	-147.9935302734375	-608.5709838867188	61.15484619140625	-390.5163879394531	-471.017333984375	485.7549133300781	-168.5164642333984	-790.178466796875	84.63688659667969	-298.8946533203125	-486.0337524414062	356.4593200683594	-160.8475646972656	-537.6242065429688	412.11669921875	-189.3470153808594	-730.8322143554688	129.7341156005859	-374.9295654296875	-601.2139282226562	291.540771484375	-166.3517913818359	-474.8480529785156	134.7563629150391	-203.2800903320312	-674.3480224609375	295.28662109375	-216.6197814941406	-679.2454833984375	263.8983764648438	-247.0685729980469	-686.555908203125	274.9491577148438	-190.2891998291016	-795.4730224609375	86.88101959228516	-354.3870239257812
